<svg xmlns="http://www.w3.org/2000/svg" width="32" height="32" viewBox="0 0 32 32" fill="none">
  <rect width="32" height="32" rx="8" fill="#6366F1"/>
  <path d="M8 10C8 8.89543 8.89543 8 10 8H22C23.1046 8 24 8.89543 24 10V22C24 23.1046 23.1046 24 22 24H10C8.89543 24 8 23.1046 8 22V10Z" stroke="white" stroke-width="1.5"/>
  <line x1="8" y1="13" x2="24" y2="13" stroke="white" stroke-width="1.5"/>
  <line x1="12" y1="8" x2="12" y2="6" stroke="white" stroke-width="1.5" stroke-linecap="round"/>
  <line x1="20" y1="8" x2="20" y2="6" stroke="white" stroke-width="1.5" stroke-linecap="round"/>
  <circle cx="12" cy="17" r="1.5" fill="#22C55E"/>
  <circle cx="16" cy="17" r="1.5" fill="#3B82F6"/>
  <circle cx="20" cy="17" r="1.5" fill="#EF4444"/>
  <circle cx="12" cy="21" r="1.5" fill="#8B5CF6"/>
  <circle cx="16" cy="21" r="1.5" fill="#F59E0B"/>
</svg>
